<?xml version="1.0" encoding="utf-8"?>
<!-- Generator: Adobe Illustrator 27.0.1, SVG Export Plug-In . SVG Version: 6.00 Build 0)  -->
<svg version="1.1" id="圖層_1" xmlns="http://www.w3.org/2000/svg" xmlns:xlink="http://www.w3.org/1999/xlink" x="0px" y="0px"
	 viewBox="0 0 2560 68" style="enable-background:new 0 0 2560 68;" xml:space="preserve">
<style type="text/css">
	.st0{fill:#DB1C5B;}
	.st1{fill:#39D85A;}
</style>
<g>
	<polygon class="st0" points="2177.7,66.9 415.5,66.9 415.3,66.8 348.5,2.3 0,2.3 0,1.3 348.9,1.3 349,1.4 415.9,65.9 2177.3,65.9 
		2246.8,0.5 2560,0.5 2560,1.5 2247.2,1.5 	"/>
</g>
<polygon points="0,9.6 332.3,9.6 380.6,57.8 0,57.8 "/>
<polygon class="st1" points="0,14 331,14 371.8,54.7 0,54.7 "/>
<polygon points="2560,9.9 2249.9,9.9 2201.6,58.1 2560,58.1 "/>
<polygon class="st1" points="2560,14.3 2365.9,14.3 2325.2,55 2560,55 "/>
</svg>
