<?xml version="1.0" encoding="utf-8"?>
<!-- Generator: Adobe Illustrator 27.0.1, SVG Export Plug-In . SVG Version: 6.00 Build 0)  -->
<svg version="1.1" id="圖層_1" xmlns="http://www.w3.org/2000/svg" xmlns:xlink="http://www.w3.org/1999/xlink" x="0px" y="0px"
	 viewBox="0 0 1366 768" style="enable-background:new 0 0 1366 768;" xml:space="preserve">
<style type="text/css">
	.st0{fill:#CC1E55;}
</style>
<g>
	<path class="st0" d="M364.4,428.8l-23.8,0l3.7-24l23.8,0L364.4,428.8z M345.3,424.8l15.7,0l2.5-16l-15.7,0L345.3,424.8z"/>
</g>
<g>
	<path class="st0" d="M125.1,431l-35.7,0l2.2-14.1l35.7,0L125.1,431z M94,426.9l27.6,0l0.9-6.1l-27.6,0L94,426.9z"/>
</g>
<g>
	<path class="st0" d="M480.2,429l-24.3,0l3.7-24l24.3,0L480.2,429z M460.6,424.9l16.2,0l2.5-16l-16.2,0L460.6,424.9z"/>
</g>
<g>
	<path class="st0" d="M939.2,390.6l-16.2,0l3.9-25.3l16.2,0L939.2,390.6z M927.6,386.6l8.2,0l2.7-17.3l-8.2,0L927.6,386.6z"/>
</g>
<g>
	<path class="st0" d="M200.7,462l-35.7,0l2.2-14.4l35.7,0L200.7,462z M169.7,457.9l27.6,0l1-6.4l-27.6,0L169.7,457.9z"/>
</g>
<g>
	<path class="st0" d="M1028.7,390.4l-15,0l18.5-23.2L1028.7,390.4z M1022.1,386.4l3.2,0l0.8-5L1022.1,386.4z"/>
</g>
<g>
	<path class="st0" d="M870.2,390.2l-15,0l19-25.7L870.2,390.2z M863.1,386.2l3.7,0l1-6.3L863.1,386.2z"/>
</g>
<g>
	<path class="st0" d="M205.5,431l-35.7,0l2.2-14.1l35.7,0L205.5,431z M174.5,427l27.6,0l0.9-6.1l-27.6,0L174.5,427z"/>
</g>
<g>
	<path class="st0" d="M946.3,344.7l-16.2,0l3.8-24.8l16.2,0L946.3,344.7z M934.7,340.7l8.2,0l2.6-16.8l-8.1,0L934.7,340.7z"/>
</g>
<g>
	<path class="st0" d="M120.3,461.9l-35.7,0l2.2-14.4l35.7,0L120.3,461.9z M89.2,457.8l27.6,0l1-6.4l-27.6,0L89.2,457.8z"/>
</g>
<g>
	<path class="st0" d="M1203.6,478.4l16.5-106.7l-34.5,0l5.8-37.6l37.5,0l-3.9,109.2L1203.6,478.4z M1223.4,376.4l-12.8,82.9
		l10.5-17.2L1223.4,376.4z M1190.3,367.7l33.5,0l1-29.6l-30,0L1190.3,367.7z"/>
</g>
<g>
	<path class="st0" d="M1183.8,463.1l-12.4,0l10.8-69.8l12.4,0L1183.8,463.1z M1176.1,459.1l4.3,0l9.6-61.8l-4.3,0L1176.1,459.1z"/>
</g>
<g>
	<path class="st0" d="M127.1,387.8l-37,0l3.2-20.5l37,0L127.1,387.8z M94.7,383.7l28.9,0l1.9-12.5l-28.9,0L94.7,383.7z"/>
</g>
<g>
	<path class="st0" d="M248.1,518l-140.6-0.2l5.2-33.9l-79.2-0.1l13.7-88.8l79.2,0.1l1.6-10.7l52.8,0.1l-1.6,10.7l79.7,0.1
		l-13.7,88.8l-79.7-0.1l-1,6.4l101.1,0.1L248.1,518z M112.2,513.9L246,514l12.5-19.4l-98.4-0.1l2.2-14.4l79.7,0.1l12.5-80.8
		l-79.7-0.1l1.6-10.7l-44.7-0.1l-1.6,10.7l-79.2-0.1l-12.5,80.8l79.2,0.1L112.2,513.9z M200.7,462l-35.7,0l2.2-14.4l35.7,0
		L200.7,462z M169.7,457.9l27.6,0l1-6.4l-27.6,0L169.7,457.9z M120.3,461.9l-35.7,0l2.2-14.4l35.7,0L120.3,461.9z M89.2,457.8
		l27.6,0l1-6.4l-27.6,0L89.2,457.8z M205.5,431l-35.7,0l2.2-14.1l35.7,0L205.5,431z M174.5,427l27.6,0l0.9-6.1l-27.6,0L174.5,427z
		 M125.1,431l-35.7,0l2.2-14.1l35.7,0L125.1,431z M94,426.9l27.6,0l0.9-6.1l-27.6,0L94,426.9z"/>
</g>
<g>
	<path class="st0" d="M269.4,383.9l-48.4-0.1l7-45.3l-39,0l-6.8,44l-53.1-0.1l6.8-44l-39.5,0l-6.7,45.3l-49-0.1L51.7,312l88.2,0.1
		l0.6-4L57.2,308l4.1-26.4l242.7,0.3l-19.9,26.4l-90.5-0.1l-0.6,4l87.5,0.1L269.4,383.9z M225.6,379.9l40.3,0l9.9-63.7l-87.5-0.1
		l1.9-12l91.9,0.1l13.8-18.4l-231.2-0.2L61.9,304l83.3,0.1l-1.9,12L55.1,316l-9.9,63.7l40.8,0l6.7-45.3l47.7,0.1l-6.8,44l45,0.1
		l6.8-44l47.1,0.1L225.6,379.9z"/>
</g>
<g>
	<path class="st0" d="M218.4,387.9l-36.5,0l3.2-20.5l36.5,0L218.4,387.9z M186.6,383.8l28.4,0l1.9-12.5l-28.4,0L186.6,383.8z"/>
</g>
<g>
	<path class="st0" d="M222.1,363.9l-36.5,0l3.2-20.8l36.5,0L222.1,363.9z M190.3,359.8l28.4,0l2-12.8l-28.4,0L190.3,359.8z"/>
</g>
<g>
	<path class="st0" d="M130.8,363.8l-37,0l3.2-20.8l37,0L130.8,363.8z M98.4,359.7l28.9,0l2-12.8l-28.9,0L98.4,359.7z"/>
</g>
<g>
	<path class="st0" d="M532.4,518.8l-84.2-0.1l9.9-64.2l-48.8-0.1l11.6-75.2l108.6,0.1L518,454.6l-12.5,0l-5.3,34.4l50.6,0
		L532.4,518.8z M452.9,514.8l77.3,0.1l13.5-21.8l-48.1,0l6.6-42.4l12.5,0l10.4-67.2l-100.5-0.1L414,450.5l48.8,0.1L452.9,514.8z
		 M480.2,429l-24.3,0l3.7-24l24.3,0L480.2,429z M460.6,424.9l16.2,0l2.5-16l-16.2,0L460.6,424.9z"/>
</g>
<g>
	<path class="st0" d="M418.2,374.8L301,374.6l4.7-30.1l10.7,0l-1.6-21.6l46,0.1l1.9,21.6l5.9,0l8.3-21.6l43.9,0.1l-7.8,21.6l9.9,0
		L418.2,374.8z M305.7,370.6l109.1,0.1l3.4-22.1l-10.9,0l7.8-21.6l-35.5,0l-8.3,21.6l-12.3,0l-1.9-21.6l-38.1,0l1.6,21.6l-11.6,0
		L305.7,370.6z"/>
</g>
<g>
	<path class="st0" d="M422.7,320.7l-139.8-0.1l22.6-29.3l39.1,0l-0.8-13.1l53.7,0.1l1.9,13.1l27.8,0L422.7,320.7z M291.1,316.5
		l128.2,0.1l3.3-21.3l-26.6,0l-1.9-13.1l-46-0.1l0.8,13.1l-41.4,0L291.1,316.5z"/>
</g>
<g>
	<path class="st0" d="M539,320.8L429,320.7l4.5-29.3l28.5,0l-1.6-13.1l54.2,0.1l1.4,13.1l27.5,0L539,320.8z M433.7,316.7l101.8,0.1
		l3.3-21.3l-26.5,0l-1.4-13.1l-46-0.1l1.6,13.1l-29.6,0L433.7,316.7z"/>
</g>
<g>
	<path class="st0" d="M535.8,374.9l-116.7-0.1l4.7-30.1l9.2,0l-1.6-21.6l45.6,0.1l1.3,21.6l4.5,0l7.5-21.6l46.1,0.1l-8,21.6l12.2,0
		L535.8,374.9z M423.8,370.8l108.6,0.1l3.4-22.1l-13.3,0l8-21.6l-37.5,0l-7.5,21.6l-11.1,0l-1.3-21.6l-37.5,0l1.6,21.6l-10,0
		L423.8,370.8z"/>
</g>
<g>
	<path class="st0" d="M437.2,518.8l-45.6-0.1l22.8-61l44.4,0.1L437.2,518.8z M397.4,514.7l37,0l18.8-53l-36,0L397.4,514.7z"/>
</g>
<g>
	<path class="st0" d="M296.2,518.6l-46.6-0.1l41.3-61l45.8,0.1L296.2,518.6z M257.1,514.6l36.9,0l35.1-53l-36.2,0L257.1,514.6z"/>
</g>
<g>
	<path class="st0" d="M389.4,518.7l-56.6-0.1l9.9-64.2l-47.8-0.1l11.6-75.2l106.8,0.1l-11.6,75.2l-12.2,0l-5.3,34.4l16.9,0
		L389.4,518.7z M337.4,514.6l49.2,0.1l8.6-21.8l-15.7,0l6.6-42.4l12.2,0l10.4-67.2l-98.7-0.1l-10.4,67.2l47.8,0.1L337.4,514.6z
		 M364.4,428.8l-23.8,0l3.7-24l23.8,0L364.4,428.8z M345.3,424.8l15.7,0l2.5-16l-15.7,0L345.3,424.8z"/>
</g>
<g>
	<path class="st0" d="M846,519l-55.3-0.1l45.2-62.9l54.7,0.1L846,519z M798.5,514.9l45.4,0.1l39-54.9l-44.9-0.1L798.5,514.9z"/>
</g>
<g>
	<path class="st0" d="M880.6,415.3l-67.9-0.1l4.7-30.3l21.9-28.4l-17.7,0l4.2-27.3l37.1-49.1l47.5,0.1l-35.1,47.1l18.6,0l-3.3,21.4
		l-12.1,16.4l9.8,0L880.6,415.3z M817.4,411.2l59.8,0.1l6.5-42.1l-10.2,0l-3.3,21.1l-15,0l15.6-21h-0.1l16.2-22l2.5-15.9l-21.9,0
		l35.1-47.1l-37.6,0l-35.3,46.7l-3.4,21.7l21.2,0l-26.2,34L817.4,411.2z M863.1,386.2l3.7,0l1-6.3L863.1,386.2z"/>
</g>
<g>
	<path class="st0" d="M1041.5,415.5l-67.9-0.1l5.6-36.4l17.9-22.2l-15.3,0l5.1-32.7l36.1-43.8l45.3,0.1l-37.9,47.1l24.4,0l-3.4,21.8
		l-12.9,16.1l10.6,0L1041.5,415.5z M978.3,411.4l59.8,0.1l6.5-42.1l-12.6,0l-3.3,21.1l-15,0l16.8-21l-0.3,0l17.4-21.7l2.5-16.1
		l-28,0l37.9-47.1l-35.1,0l-34.2,41.5l-4.2,27l19,0L983,380.7L978.3,411.4z M1022.1,386.4l3.2,0l0.8-5L1022.1,386.4z"/>
</g>
<g>
	<path class="st0" d="M938,519.1l-52.8-0.1l10.5-68l-88.5-0.1l4.5-28.8l88.5,0.1l1.1-6.9l-18.4,0l18.6-120.2l15.6,0l8.2-14.7l55,0.1
		l-8.5,14.7l18.6,0l-18.6,120.2l-17.6,0l-1.1,6.9l88.8,0.1l-4.5,28.8l-88.8-0.1L938,519.1z M889.8,515l44.7,0.1l10.5-68l88.8,0.1
		l3.2-20.8l-88.8-0.1l2.3-14.9l17.6,0l17.4-112.2l-20.9,0l8.5-14.7l-45.7-0.1l-8.2,14.7l-14.5,0l-17.4,112.2l18.4,0l-2.3,14.9
		l-88.5-0.1l-3.2,20.8l88.5,0.1L889.8,515z M939.2,390.6l-16.2,0l3.9-25.3l16.2,0L939.2,390.6z M927.6,386.6l8.2,0l2.7-17.3l-8.2,0
		L927.6,386.6z M946.3,344.7l-16.2,0l3.8-24.8l16.2,0L946.3,344.7z M934.7,340.7l8.2,0l2.6-16.8l-8.1,0L934.7,340.7z"/>
</g>
<g>
	<path class="st0" d="M1306.4,518.4l-87.3-0.1l0.4-18.4l-8.6,13l-33.5,0l15.2-24.5l-16.5,0l-2.4-13.1l-1.4,9l-0.1,0.3l-15.4,33.7
		l-50.3-0.1l19.1-41.2l25.9-167.7l74.5,0.1l1.3-28.5l46.8,0.1l-1,28.5l2.8,0l1.4-24l26.8,0l-0.9,24l6.2,0l-4.5,28.8l-33,0l-0.5,23
		l3.1-5.4l34.1,0l-39.7,64.1l-2.3,69.9l54.7,0L1306.4,518.4z M1223.1,514.4l80.8,0.1l10.8-20.5l-52.2,0l2.5-75.1l36.5-58.9l-24.6,0
		l-9.7,17l0.9-42.6l33.5,0l3.2-20.8l-5.7,0l0.9-24l-18.9,0l-1.4,24l-10.7,0l1-28.5l-38.8,0l-1.3,28.5l-74.9-0.1l-25.5,164.9
		l-0.1,0.3l-16.6,35.8l41.5,0l14.2-31.1l5-32v0l9-57.9l12.4,0l-10.8,69.8l-8.3,0l3.9,21.3l20.3,0l-15.2,24.5l24.1,0l15.1-22.7
		L1223.1,514.4z M1176.1,459.1l4.3,0l9.6-61.8l-4.3,0L1176.1,459.1z M1203.6,478.4l16.5-106.7l-34.5,0l5.8-37.6l37.5,0l-3.9,109.2
		L1203.6,478.4z M1223.4,376.4l-12.8,82.9l10.5-17.2L1223.4,376.4z M1190.3,367.7l33.5,0l1-29.6l-30,0L1190.3,367.7z"/>
</g>
<g>
	<path class="st0" d="M1041.1,519.9l7.9-31.4l14.5-5.3l18.1-118.1l-12.5,0l5.5-33.8l12.5,0l4.2-25.6l51.5-26.5l-8.1,52.2l10.7,0
		l-5.5,33.8l-10.6,0l-15.1,98.8l12-5.1l-4.9,31.6L1041.1,519.9z M1052.4,491.6l-5.5,22l70.7-25.9l3.4-22.2l-11.9,5l16.7-109.3
		l10.7,0l4.2-25.8l-10.6,0l7.6-49.1l-42.7,22l-4.4,27l-12.5,0l-4.2,25.8l12.4,0l-19.1,125.1L1052.4,491.6z"/>
</g>
<g>
	<path class="st0" d="M977.8,519.1l-26.3-63l54.7,0.1l12.2,29.8h28.8l-8.5,33h-9.7L977.8,519.1z M957.5,460.2l23,54.9l55.2-0.1
		l6.4-25h-26.3l-12.2-29.8L957.5,460.2z"/>
</g>
<g>
	<path class="st0" d="M602.6,431.9l-5.5-11.4l12.7-82l13.1,0l-12.8,82.5L602.6,431.9z M601.3,419.9l2,4.1l3.1-4.5l11.9-76.9l-5,0
		L601.3,419.9z"/>
</g>
<g>
	<path class="st0" d="M746.8,426.9l-13.9,0l4.9-31.7l13.9,0L746.8,426.9z M737.6,422.9l5.8,0l3.7-23.7l-5.8,0L737.6,422.9z"/>
</g>
<g>
	<path class="st0" d="M784.3,519.2l-59.6-0.1L703.9,483l-29,36l-55.1-0.1l4.8-5.6l-26.8,0l-4.2-8.7l-10,14.3l-47.5-0.1l38.1-53.9
		l-14.1-29.4l14.4-93.2l-14.4,0l-18.4-29.6l37.5,0l5.1-32.8l38.6,0l-5.1,32.8l5,0l5.1-32.8l39.1,0l-5.1,32.8l3.9,0l-4.6,29.6l-3.9,0
		l-14.6,94.2l-20.1,28.2l15.4,31.8l36.5-45.2l-32.4,0l4.5-28.8l41.8,0l3.7-23.7l-38.4,0l16.1-104l45.8,0.1l-11.7,75.4l86.2,0.1
		l-8.1,52.2l8.8,0l-4.5,28.8l-56.8-0.1l-6.3,7.7l25.9,0L784.3,519.2z M727.1,515.1l50.2,0.1l-30.5-51.8l-32,0l12.9-15.7l55.3,0.1
		l3.2-20.8l-8.8,0l8.1-52.2l-86.2-0.1l11.7-75.4l-37.7,0l-14.8,96l38.4,0l-4.9,31.7l-41.8,0l-3.2,20.8l36.1,0l-45.7,56.6L618,464.5
		l21-29.3l14.9-96.7l3.9,0l3.3-21.6l-3.9,0l5.1-32.8l-31,0l-5.1,32.8l-13.1,0l5.1-32.8l-30.5,0l-5.1,32.8l-33.7,0l13.5,21.6l16.9,0
		L564.4,435l14.6,30.4l-35,49.5l37.7,0l12.7-18.2l6,12.6l32.9,0l-4.8,5.6l44.5,0.1l31.4-39.1L727.1,515.1z M602.6,431.9l-5.5-11.4
		l12.7-82l13.1,0l-12.8,82.5L602.6,431.9z M601.3,419.9l2,4.1l3.1-4.5l11.9-76.9l-5,0L601.3,419.9z M746.8,426.9l-13.9,0l4.9-31.7
		l13.9,0L746.8,426.9z M737.6,422.9l5.8,0l3.7-23.7l-5.8,0L737.6,422.9z"/>
</g>
<g>
	<path class="st0" d="M795.7,366.6l-79.9-0.1l12.2-78.9l3,0l28.9,33l-2.6,17.1l7.4,0l1.5-10l31.7,36.1l-0.4,2.6L795.7,366.6z
		 M720.5,362.5l70.9,0.1l-22.5-25.7l-0.8,4.9l-15.5,0l3.1-19.9l-24.6-28L720.5,362.5z"/>
</g>
<g>
	<path class="st0" d="M808,369.1L776.4,333l2.5-16l-7.4,0l-1.4,8.8l-33.5-38.2l84,0.1L808,369.1z M780.6,331.7l24.8,28.3l10.6-68.3
		l-70.5-0.1l22,25.1l0.6-3.7l15.5,0L780.6,331.7z"/>
</g>
</svg>
