<?xml version="1.0" encoding="utf-8"?>
<!-- Generator: Adobe Illustrator 27.0.1, SVG Export Plug-In . SVG Version: 6.00 Build 0)  -->
<svg version="1.1" id="圖層_1" xmlns="http://www.w3.org/2000/svg" xmlns:xlink="http://www.w3.org/1999/xlink" x="0px" y="0px"
	 viewBox="0 0 1366 768" style="enable-background:new 0 0 1366 768;" xml:space="preserve">
<style type="text/css">
	.st0{fill:#FFFFFF;}
</style>
<polygon class="st0" points="343,426.8 362.7,426.8 365.8,406.8 346.1,406.8 "/>
<polygon class="st0" points="91.7,428.9 123.4,429 124.9,418.8 93.3,418.8 "/>
<polygon class="st0" points="458.2,426.9 478.5,427 481.6,407 461.3,407 "/>
<polygon class="st0" points="925.3,388.6 937.5,388.6 940.8,367.3 928.6,367.2 "/>
<polygon class="st0" points="200.6,449.6 169,449.5 167.4,459.9 199,460 "/>
<polygon class="st0" points="1029.2,374.3 1018,388.4 1027,388.4 "/>
<polygon class="st0" points="870.9,372.2 859.1,388.2 868.5,388.2 "/>
<polygon class="st0" points="205.4,418.9 173.7,418.9 172.1,429 203.8,429 "/>
<polygon class="st0" points="932.4,342.7 944.6,342.7 947.8,321.9 935.6,321.9 "/>
<polygon class="st0" points="86.9,459.8 118.6,459.9 120.2,449.5 88.5,449.4 "/>
<polygon class="st0" points="1187.9,369.7 1222.5,369.7 1207.1,468.9 1223.1,442.8 1226.9,336.1 1193.1,336.1 "/>
<polygon class="st0" points="1173.8,461.1 1182.1,461.1 1192.3,395.3 1184,395.3 "/>
<polygon class="st0" points="92.4,385.7 125.4,385.8 127.9,369.2 95,369.2 "/>
<path class="st0" d="M162.3,492.5l1.6-10.4l79.7,0.1l13.1-84.8l-79.7-0.1l1.6-10.7l-48.8-0.1l-1.6,10.7l-79.2-0.1L36,481.9l79.2,0.1
	l-5.2,33.9l137.1,0.2l15-23.4L162.3,492.5z M173.7,418.9l31.7,0l-1.6,10.1l-31.7,0L173.7,418.9z M169,449.5l31.7,0L199,460l-31.7,0
	L169,449.5z M118.6,459.9l-31.7,0l1.6-10.4l31.7,0L118.6,459.9z M123.4,429l-31.7,0l1.6-10.1l31.7,0L123.4,429z"/>
<polygon class="st0" points="94.6,336.4 138.2,336.5 131.4,380.4 180.4,380.5 187.2,336.5 230.3,336.6 223.3,381.9 267.7,381.9 
	278.1,314.2 190.7,314.1 191.9,306.1 283.2,306.2 300,283.8 63,283.6 59.6,306 142.9,306.1 141.6,314.1 53.4,314 42.9,381.7 
	87.8,381.7 "/>
<polygon class="st0" points="184.3,385.8 216.7,385.9 219.3,369.3 186.8,369.3 "/>
<polygon class="st0" points="223,345.1 190.6,345.1 188,361.8 220.4,361.9 "/>
<polygon class="st0" points="131.7,345 98.7,344.9 96.1,361.7 129.1,361.8 "/>
<path class="st0" d="M497.9,491l5.9-38.4l12.5,0l11-71.2l-104.6-0.1l-11,71.2l48.8,0.1l-9.9,64.2l80.7,0.1l15.9-25.8L497.9,491z
	 M478.5,427l-20.2,0l3.1-20l20.2,0L478.5,427z"/>
<polygon class="st0" points="303.4,372.6 416.5,372.8 420.6,346.7 410.2,346.6 417.9,325.1 378.2,325 370,346.6 360.9,346.6 
	359,325 317,324.9 318.6,346.5 307.4,346.5 "/>
<polygon class="st0" points="287,318.5 421,318.7 424.9,293.3 397.7,293.3 395.8,280.2 346,280.2 346.8,293.2 306.5,293.2 "/>
<polygon class="st0" points="541.2,293.5 514.2,293.4 512.8,280.4 462.7,280.3 464.4,293.4 435.3,293.3 431.4,318.7 537.3,318.8 "/>
<polygon class="st0" points="534.1,372.9 538.1,346.8 525.4,346.8 533.4,325.2 491.6,325.1 484.1,346.7 476.4,346.7 475,325.1 
	433.5,325.1 435.1,346.7 425.5,346.7 421.4,372.8 "/>
<polygon class="st0" points="415.8,459.7 394.5,516.7 435.8,516.8 456,459.7 "/>
<polygon class="st0" points="253.3,516.5 295.1,516.6 332.9,459.6 291.9,459.5 "/>
<path class="st0" d="M381.9,490.8l5.9-38.4l12.2,0l11-71.2l-102.8-0.1l-11,71.2l47.7,0.1l-9.9,64.2l52.9,0.1l10.2-25.8L381.9,490.8z
	 M362.7,426.8l-19.7,0l3.1-20l19.7,0L362.7,426.8z"/>
<polygon class="st0" points="794.6,516.9 844.9,517 886.7,458.1 836.9,458.1 "/>
<path class="st0" d="M815,413.2l63.8,0.1l7.1-46.1l-11.4,0l14.1-19.2l2.9-18.7l-20.2,0l35.1-47.1l-42.6,0l-36.2,47.9l-3.8,24.5
	l19.5,0l-24,31.2L815,413.2z M870.9,372.2l-2.5,16l-9.3,0L870.9,372.2z"/>
<path class="st0" d="M1001.3,354.8l-20.2,25l-5.2,33.6l63.8,0.1l7.1-46.1l-12.5,0l15.1-18.9l2.9-18.9l-26.2,0l37.9-47.1l-40.2,0
	l-35.1,42.6l-4.6,29.9L1001.3,354.8z M1029.2,374.3l-2.2,14.1l-9.1,0L1029.2,374.3z"/>
<path class="st0" d="M1039.4,424.4l-88.8-0.1l1.7-10.9l17.6,0l18-116.2l-19.7,0l8.5-14.7l-50.3-0.1l-8.2,14.7l-15.1,0l-18,116.2
	l18.4,0l-1.7,10.9l-88.5-0.1l-3.8,24.8l88.5,0.1l-10.5,68l48.8,0.1l10.5-68l88.8,0.1L1039.4,424.4z M937.5,388.6l-12.2,0l3.3-21.3
	l12.2,0L937.5,388.6z M944.6,342.7l-12.2,0l3.2-20.8l12.2,0L944.6,342.7z"/>
<path class="st0" d="M1264.6,491.9l2.4-72.5l38.1-61.5l-29.3,0l-6.4,11.2l0.7-32.8l33.2,0l3.8-24.8l-6,0l0.9-24l-22.8,0l-1.4,24
	l-6.7,0l1-28.5l-42.8,0l-1.3,28.5l-74.7-0.1l-25.7,166.3l-17.9,38.6l45.9,0.1l14.9-32.5l3.2-20.5l4.2,23.2l18.4,0l-15.2,24.5l28.8,0
	l11.8-17.8l-0.5,23.2l84.1,0.1l12.9-24.5L1264.6,491.9z M1182.1,461.1l-8.3,0l10.2-65.8l8.3,0L1182.1,461.1z M1223.1,442.8l-16,26.1
	l15.3-99.2l-34.5,0l5.2-33.6l33.7,0L1223.1,442.8z"/>
<polygon class="st0" points="1123.5,462.1 1111.6,467.2 1127.5,363.2 1138.1,363.2 1142.9,333.4 1132.3,333.4 1140.1,282.7 
	1093,307 1088.7,333.3 1076.2,333.3 1071.4,363.1 1083.9,363.1 1065.3,484.7 1050.7,490 1044,516.7 1119.4,489.1 "/>
<polygon class="st0" points="1017.1,488 1004.8,458.2 954.5,458.2 979.1,517.1 1029,517 1037.2,517 1044.6,488 "/>
<polygon class="st0" points="611.5,340.5 599.2,420.2 602.9,427.9 608.3,420.2 620.6,340.5 "/>
<polygon class="st0" points="735.2,424.9 745.1,424.9 749.4,397.2 739.5,397.1 "/>
<path class="st0" d="M787.7,372.7l-86.2-0.1l11.7-75.4l-41.8,0L656,397l38.4,0l-4.3,27.7l-41.8,0l-3.8,24.8l34.3,0l-41.1,50.9
	l-17.3-35.7l20.5-28.8l14.8-95.4l3.9,0l4-25.6l-3.9,0l5.1-32.8l-35,0l-5.1,32.8l-9.1,0l5.1-32.8l-34.5,0l-5.1,32.8l-35.6,0
	l15.9,25.6l15.7,0l-14.7,94.9l14.3,29.9l-36.5,51.7l42.6,0l11.3-16.3l5.1,10.7l29.8,0l-4.8,5.6L674,517l30.2-37.6l21.7,37.6
	l54.9,0.1l-32.9-55.8l-29,0l9.6-11.7l56.1,0.1l3.8-24.8l-8.8,0L787.7,372.7z M602.9,427.9l-3.7-7.7l12.3-79.7l9.1,0l-12.3,79.7
	L602.9,427.9z M745.1,424.9l-9.9,0l4.3-27.7l9.9,0L745.1,424.9z"/>
<polygon class="st0" points="767.5,332.3 766.3,339.8 754.9,339.8 755.7,334.8 757.5,322.8 757.8,321.3 752,314.7 730,289.6 
	729.7,289.6 718.1,364.5 795.7,364.6 795.7,364.6 "/>
<polygon class="st0" points="741,289.6 758.9,310 763.4,315.1 768.8,321.3 769.8,315 781.2,315 778.5,332.3 806.7,364.6 
	818.3,289.7 "/>
</svg>
